<svg viewBox="0 0 284 76" fill="none"
    xmlns="http://www.w3.org/2000/svg">
    <path d="M20.5011 56.955C19.3771 57.5545 18.2157 58.004 17.0318 58.3038C15.8479 58.6035 14.589 58.7534 13.2553 58.7534C9.05164 58.7534 5.79215 57.2697 3.47679 54.295C1.15393 51.3277 0 47.1466 0 41.7591C0 36.4015 1.16892 32.2279 3.49927 29.2381C5.83711 26.2484 9.0891 24.7498 13.2553 24.7498C14.589 24.7498 15.8479 24.8996 17.0318 25.1994C18.2157 25.4991 19.3771 25.9487 20.5011 26.5481V31.0889C19.4146 30.1972 18.2531 29.5154 17.0093 29.0508C15.7654 28.5787 14.5141 28.3464 13.2553 28.3464C10.3704 28.3464 8.21241 29.4554 6.78123 31.6809C5.35006 33.9063 4.63072 37.2632 4.63072 41.7591C4.63072 46.2399 5.35006 49.5893 6.78123 51.8148C8.21241 54.0402 10.3704 55.1492 13.2553 55.1492C14.5441 55.1492 15.8029 54.9169 17.0393 54.4448C18.2756 53.9728 19.4296 53.2984 20.4936 52.4067V56.955H20.5011Z" fill="#E5E5E5" />
    <path d="M37.5333 32.9397C40.9426 32.9397 43.5502 34.0487 45.3561 36.2516C47.1619 38.4621 48.0686 41.6616 48.0686 45.8428C48.0686 50.0464 47.1694 53.2459 45.3711 55.4489C43.5727 57.6519 40.9576 58.7533 37.5333 58.7533C34.1239 58.7533 31.5164 57.6519 29.718 55.4489C27.9197 53.2459 27.0205 50.0464 27.0205 45.8428C27.0205 41.6541 27.9197 38.4621 29.718 36.2516C31.5164 34.0412 34.1239 32.9397 37.5333 32.9397ZM37.5333 36.364C35.4877 36.364 33.9366 37.1583 32.8801 38.7543C31.8236 40.3503 31.2991 42.7107 31.2991 45.8428C31.2991 48.9599 31.8236 51.3202 32.8801 52.9237C33.9366 54.5272 35.4877 55.329 37.5333 55.329C39.5939 55.329 41.1524 54.5272 42.209 52.9237C43.2655 51.3202 43.79 48.9599 43.79 45.8428C43.79 42.7107 43.2655 40.3503 42.209 38.7543C41.1599 37.1583 39.6014 36.364 37.5333 36.364Z" fill="#E5E5E5" />
    <path d="M69.9177 36.6712V23.9555H73.9565V58.1164H69.9177V55.0218C69.2434 56.2356 68.3517 57.1648 67.2277 57.8017C66.1038 58.4386 64.815 58.7533 63.3538 58.7533C60.3866 58.7533 58.0487 57.5994 56.3403 55.299C54.6319 52.9986 53.7852 49.8141 53.7852 45.7603C53.7852 41.7665 54.6394 38.6269 56.3553 36.3565C58.0712 34.0786 60.4015 32.9397 63.3613 32.9397C64.8374 32.9397 66.1412 33.2544 67.2652 33.8913C68.3892 34.5282 69.2733 35.4573 69.9177 36.6712ZM58.0412 45.8428C58.0412 48.9749 58.5358 51.3352 59.5323 52.9312C60.5289 54.5272 61.9976 55.3215 63.9458 55.3215C65.894 55.3215 67.3776 54.5197 68.3892 52.9087C69.4082 51.2977 69.9177 48.9449 69.9177 45.8428C69.9177 42.7256 69.4082 40.3653 68.3892 38.7618C67.3701 37.1583 65.8865 36.364 63.9458 36.364C62.0051 36.364 60.5289 37.1583 59.5323 38.7543C58.5358 40.3503 58.0412 42.7106 58.0412 45.8428Z" fill="#E5E5E5" />
    <path d="M102.729 43.8047V45.7828H85.2331V45.9177C85.1132 49.2671 85.7576 51.6799 87.1513 53.141C88.5525 54.6022 90.5232 55.3365 93.0708 55.3365C94.3596 55.3365 95.7084 55.1342 97.1096 54.7221C98.5183 54.31 100.017 53.688 101.613 52.8563V56.8726C100.077 57.502 98.5932 57.9741 97.1695 58.2888C95.7458 58.6035 94.3596 58.7608 93.0334 58.7608C89.2119 58.7608 86.2296 57.6144 84.0791 55.329C81.9286 53.0361 80.8496 49.8815 80.8496 45.8578C80.8496 41.9389 81.9061 38.8068 84.0117 36.4614C86.1172 34.1236 88.9271 32.9472 92.4414 32.9472C95.5735 32.9472 98.0462 34.0112 99.8521 36.1318C101.65 38.2448 102.617 40.8074 102.729 43.8047ZM98.6906 42.6208C98.5183 40.9198 97.8964 39.4587 96.8323 38.2223C95.7683 36.986 94.2472 36.364 92.2541 36.364C90.3059 36.364 88.7024 37.0084 87.4435 38.2973C86.1847 39.5861 85.4953 41.0322 85.3829 42.6432L98.6906 42.6208Z" fill="#E5E5E5" />
    <path d="M110.329 25.3417H129.624V29.0733H114.787V37.8552H128.245V41.5867H114.787V58.1164H110.329V25.3417Z" fill="#21D9B8" />
    <path d="M134.755 33.5091H145.095V54.8719H153.106V58.0115H133.039V54.8719H141.049V36.6487H134.747V33.5091H134.755ZM141.057 23.9555H145.095V29.0508H141.057V23.9555Z" fill="#21D9B8" />
    <path d="M176.671 38.5145C175.81 37.8402 174.933 37.3531 174.034 37.0459C173.135 36.7387 172.161 36.5813 171.089 36.5813C168.571 36.5813 166.646 37.3681 165.312 38.9491C163.978 40.5302 163.311 42.8156 163.311 45.7978V58.0265H159.25V33.4417H163.311V38.2523C163.986 36.5139 165.02 35.1726 166.421 34.2435C167.822 33.3143 169.478 32.8498 171.396 32.8498C172.393 32.8498 173.322 32.9772 174.184 33.2244C175.045 33.4717 175.877 33.8613 176.664 34.3859V38.5145H176.671Z" fill="#21D9B8" />
    <path d="M200.096 43.0554V45.0335H182.599V45.1684C182.479 48.5178 183.124 50.9306 184.518 52.3917C185.919 53.8529 187.889 54.5872 190.437 54.5872C191.726 54.5872 193.075 54.3849 194.476 53.9728C195.885 53.5606 197.383 52.9387 198.979 52.107V56.1233C197.443 56.7527 195.959 57.2248 194.536 57.5395C193.112 57.8542 191.726 58.0115 190.4 58.0115C186.578 58.0115 183.596 56.8651 181.445 54.5797C179.295 52.2868 178.216 49.1322 178.216 45.1085C178.216 41.1896 179.272 38.0575 181.378 35.7121C183.483 33.3743 186.293 32.1979 189.808 32.1979C192.94 32.1979 195.412 33.2619 197.218 35.3824C199.017 37.4955 199.983 40.0581 200.096 43.0554ZM196.057 41.8714C195.884 40.1705 195.263 38.7094 194.199 37.473C193.135 36.2367 191.613 35.6147 189.62 35.6147C187.672 35.6147 186.069 36.2591 184.81 37.5479C183.551 38.8368 182.862 40.2829 182.749 41.8939L196.057 41.8714Z" fill="#21D9B8" />
    <path d="M261.106 0.325549L214.574 11.1905C205.957 13.2136 202.435 23.5541 207.98 30.4477L239.376 69.1869C245.445 76.68 257.359 74.2822 260.131 65.1407L275.267 15.4616C277.965 6.61973 270.097 -1.77251 261.106 0.325549ZM249.192 48.6559C250.091 47.5319 250.615 46.1832 250.615 44.6096C250.615 40.1138 246.269 39.3645 245.37 36.592C244.771 37.6411 244.246 38.765 244.021 39.9639C241.099 39.2146 238.926 37.3414 238.926 33.9695C238.926 33.5948 238.926 33.2202 239.001 32.8455C236.154 35.0934 234.955 37.9408 234.955 40.2637C234.955 44.0851 237.952 47.1573 242.148 48.1314C237.652 48.8807 226.937 46.9325 226.937 35.6929C226.937 22.9546 242.448 19.8076 245.145 9.6919C246.644 11.4153 247.168 13.1387 247.168 14.9371C247.168 19.4329 243.272 22.7298 243.797 27.975C244.096 31.1221 247.393 32.9204 250.316 32.9204C254.287 32.9204 256.76 30.3728 256.835 26.6263C256.909 23.5541 254.961 20.407 253.163 18.3089C258.858 21.9805 261.48 27.6004 261.405 32.2461C261.33 41.1628 256.46 46.9325 249.192 48.6559Z" fill="url(#paint0_linear)" />
    <path d="M269.648 1.0749L215.473 11.7151C206.631 13.4385 202.81 24.0037 208.505 31.0472L241.1 71.285C246.794 78.3285 257.959 76.755 261.481 68.4377L283.061 17.5597C286.732 8.64291 279.09 -0.798369 269.648 1.0749ZM249.192 48.6559C250.091 47.532 250.616 46.1832 250.616 44.6097C250.616 40.1138 246.27 39.3645 245.371 36.5921C244.771 37.6411 244.247 38.7651 244.022 39.964C241.1 39.2147 238.927 37.3414 238.927 33.9695C238.927 33.5949 238.927 33.2202 239.002 32.8455C236.154 35.0935 234.955 37.9408 234.955 40.2637C234.955 44.0852 237.953 47.1573 242.149 48.1314C237.653 48.8807 226.938 46.9325 226.938 35.6929C226.938 22.9547 242.448 19.8076 245.146 9.69194C246.645 11.4154 247.169 13.1388 247.169 14.9371C247.169 19.4329 243.273 22.7299 243.797 27.975C244.097 31.1221 247.394 32.9205 250.316 32.9205C254.287 32.9205 256.76 30.3728 256.835 26.6263C256.91 23.5541 254.962 20.407 253.163 18.309C258.858 21.9806 261.481 27.6004 261.406 32.2461C261.331 41.1629 256.46 46.9325 249.192 48.6559Z" fill="url(#paint1_linear)" />
    <defs>
        <linearGradient id="paint0_linear" x1="240.558" y1="0" x2="240.558" y2="73.633" gradientUnits="userSpaceOnUse">
            <stop stop-color="#7371FC" />
            <stop offset="1" stop-color="#29EBC8" />
        </linearGradient>
        <linearGradient id="paint1_linear" x1="242.158" y1="97.7699" x2="245.825" y2="-8.58398" gradientUnits="userSpaceOnUse">
            <stop stop-color="#21D9B8" />
            <stop offset="1" stop-color="#29EBC8" stop-opacity="0.65" />
        </linearGradient>
    </defs>
</svg>